<?xml version="1.0" standalone="no"?>
<!DOCTYPE svg PUBLIC "-//W3C//DTD SVG 20010904//EN"
 "http://www.w3.org/TR/2001/REC-SVG-20010904/DTD/svg10.dtd">
<svg version="1.0" xmlns="http://www.w3.org/2000/svg"
 width="32.000000pt" height="32.000000pt" viewBox="0 0 32.000000 32.000000"
 preserveAspectRatio="xMidYMid meet">

<g transform="translate(0.000000,32.000000) scale(0.100000,-0.100000)"
fill="#000000" stroke="none">
<path d="M20 160 l0 -110 115 0 115 0 0 110 0 110 -115 0 -115 0 0 -110z m220
0 l0 -100 -105 0 -105 0 0 100 0 100 105 0 105 0 0 -100z"/>
<path d="M150 236 c0 -2 8 -10 18 -17 15 -13 16 -12 3 4 -13 16 -21 21 -21 13z"/>
<path d="M80 155 l0 -75 34 0 c19 0 42 3 50 6 25 10 38 41 27 63 -11 20 -51
36 -51 20 0 -5 6 -9 14 -9 7 0 19 -7 26 -15 19 -23 -5 -45 -51 -45 l-39 0 0
59 c0 38 4 61 13 64 7 3 5 6 -5 6 -16 1 -18 -9 -18 -74z"/>
<path d="M145 210 c10 -11 20 -20 23 -20 3 0 -3 9 -13 20 -10 11 -20 20 -23
20 -3 0 3 -9 13 -20z"/>
</g>
</svg>
